<svg id="CALCULATOR" xmlns="http://www.w3.org/2000/svg" viewBox="0 0 1600 1400"><defs><style>.cls-1{fill:#88c0c2;}.cls-2{fill:#fff;}.cls-3{fill:#262424;}.cls-4{fill:#de9244;}</style></defs><title>Project costing</title><path class="cls-1" d="M1341.52,144.8l-52-51.87-53.25,46.88h-288c-12.84,0-25.68,8.69-28.67,19.41L823.52,503.13l-76.91,67.71L797,621.21a14.72,14.72,0,0,0,1.43,1.43h0c3.25,2.83,8,4.53,13.66,4.53h379.07c12.84,0,25.68-8.69,28.67-19.41l125.32-448.55C1346.77,153.49,1345.24,148.35,1341.52,144.8Z"/><line class="cls-2" x1="1314.79" y1="154.94" x2="1196.43" y2="578.57"/><path class="cls-3" d="M1196.43,581.34a2.78,2.78,0,0,1-2.68-3.52l118.35-423.63a2.78,2.78,0,0,1,5.35,1.49L1199.11,579.31A2.78,2.78,0,0,1,1196.43,581.34Z"/><path class="cls-3" d="M1151.6,607.44H801.1a2.78,2.78,0,1,1,0-5.55h350.5A2.78,2.78,0,0,1,1151.6,607.44Z"/><path class="cls-2" d="M1140.26,576.24H761.19c-12.84,0-20.82-8.69-17.83-19.41L868.68,108.28c3-10.72,15.83-19.41,28.67-19.41h379.07c12.84,0,20.82,8.69,17.83,19.41L1168.93,556.83C1165.93,567.55,1153.1,576.24,1140.26,576.24Z"/><path class="cls-3" d="M1140.26,579H761.19c-7.62,0-14.15-2.84-17.92-7.8a16.92,16.92,0,0,1-2.59-15.13L866,107.53c3.36-12,17.13-21.44,31.35-21.44h379.07c7.62,0,14.15,2.84,17.92,7.8a16.92,16.92,0,0,1,2.59,15.13L1171.6,557.58C1168.24,569.6,1154.48,579,1140.26,579ZM897.35,91.65c-11.66,0-23.32,7.79-26,17.38L746,557.58a11.35,11.35,0,0,0,1.66,10.28c2.7,3.56,7.62,5.6,13.49,5.6h379.07c11.66,0,23.32-7.79,26-17.38l125.32-448.55a11.35,11.35,0,0,0-1.66-10.28c-2.7-3.56-7.62-5.6-13.49-5.6H897.35Z"/><path class="cls-4" d="M897.79,381.12h-57c-7.67,0-12.44-5.19-10.65-11.6L851,294.88c1.79-6.4,9.46-11.6,17.13-11.6h57c7.67,0,12.44,5.19,10.65,11.6l-20.86,74.65C913.13,375.93,905.46,381.12,897.79,381.12Z"/><path class="cls-4" d="M1033.73,381.12h-57c-7.67,0-12.44-5.19-10.65-11.6l20.86-74.65c1.79-6.4,9.46-11.6,17.13-11.6h57c7.67,0,12.44,5.19,10.65,11.6l-20.86,74.65C1049.07,375.93,1041.4,381.12,1033.73,381.12Z"/><path class="cls-4" d="M1169.67,381.12h-57c-7.67,0-12.44-5.19-10.65-11.6l20.86-74.65c1.79-6.4,9.46-11.6,17.13-11.6h57c7.67,0,12.44,5.19,10.65,11.6l-20.86,74.65C1185,375.93,1177.35,381.12,1169.67,381.12Z"/><path class="cls-4" d="M858.83,520.56h-57c-7.67,0-12.44-5.19-10.65-11.6L812,434.32c1.79-6.4,9.46-11.6,17.13-11.6h57c7.67,0,12.44,5.19,10.65,11.6L876,509C874.17,515.37,866.5,520.56,858.83,520.56Z"/><path class="cls-4" d="M994.77,520.56h-57c-7.67,0-12.44-5.19-10.65-11.6L948,434.32c1.79-6.4,9.46-11.6,17.13-11.6h57c7.67,0,12.44,5.19,10.65,11.6L1011.91,509C1010.12,515.37,1002.45,520.56,994.77,520.56Z"/><path class="cls-4" d="M1130.72,520.56h-57c-7.67,0-12.44-5.19-10.65-11.6l20.86-74.65c1.79-6.4,9.46-11.6,17.13-11.6h57c7.67,0,12.44,5.19,10.65,11.6L1147.85,509C1146.06,515.37,1138.39,520.56,1130.72,520.56Z"/><path class="cls-1" d="M1213.2,225.34H884.32c-7.67,0-12.44-5.19-10.65-11.6l20.86-74.65c1.79-6.4,9.46-11.6,17.13-11.6h328.88c7.67,0,12.44,5.19,10.65,11.6l-20.86,74.65C1228.54,220.15,1220.87,225.34,1213.2,225.34Z"/><path class="cls-2" d="M1219.53,1010.67h0a81.43,81.43,0,0,1-81.43-81.43V604.67H815.77V929.24a81.43,81.43,0,0,0,81.43,81.43h322.33Z"/><path class="cls-3" d="M1219.53,1013.44H897.19A84.3,84.3,0,0,1,813,929.24V604.67a2.78,2.78,0,0,1,2.78-2.78H1138.1a2.78,2.78,0,0,1,2.78,2.78V929.24a78.74,78.74,0,0,0,78.65,78.65A2.78,2.78,0,0,1,1219.53,1013.44Zm-401-406V929.24a78.74,78.74,0,0,0,78.65,78.65h292.25a84.35,84.35,0,0,1-54.12-78.65V607.44H818.54Z"/><path class="cls-2" d="M1138.1,866.34v62.9a81.43,81.43,0,0,0,81.43,81.43h0A81.43,81.43,0,0,0,1301,929.24v-62.9H1138.1Z"/><path class="cls-3" d="M1219.53,1013.44a84.3,84.3,0,0,1-84.21-84.21v-62.9a2.78,2.78,0,0,1,2.78-2.78H1301a2.78,2.78,0,0,1,2.78,2.78v62.9A84.3,84.3,0,0,1,1219.53,1013.44Zm-78.65-144.33v60.13a78.65,78.65,0,1,0,157.3,0V869.11h-157.3Z"/><rect class="cls-1" x="851.05" y="685" width="251.77" height="31.93" rx="15.01" ry="15.01"/><rect class="cls-1" x="851.05" y="781.46" width="128.72" height="31.93" rx="15.01" ry="15.01"/><rect class="cls-1" x="851.05" y="877.91" width="128.72" height="31.93" rx="15.01" ry="15.01"/><path class="cls-4" d="M1063.5,920.32a1.52,1.52,0,0,0-1.25,1.46l0.21,9.36c0,2.5-1.25,3.54-3.54,3.54h-12.27c-2.29,0-3.54-1-3.54-3.54l0.42-9.57a1.52,1.52,0,0,0-1.25-1.46c-23.71-2.91-37.44-17.26-37.44-37.23v-8.94a3.18,3.18,0,0,1,3.54-3.54H1030c2.29,0,3.54,1,3.54,2.7V876c0,10.61,6.86,19.76,21,19.76,13.31,0,18.93-8.11,18.93-16.43,0-14.77-27-17.06-47-30-12.9-7.9-21.84-18.1-21.84-35.78,0-21.84,13.52-37.23,37.44-40.77a1.52,1.52,0,0,0,1.25-1.46l-0.42-11.23c0-2.5,1.25-3.54,3.54-3.54h11.86a3.18,3.18,0,0,1,3.54,3.54l-0.21,11a1.52,1.52,0,0,0,1.25,1.46c25,2.7,39.11,17.89,39.11,39.31v6.86a3.18,3.18,0,0,1-3.54,3.54h-21.84c-2.29,0-3.54-.83-3.54-2.08v-2.08c0-11-6.24-21-20.8-21-11.65,0-18.72,6-18.72,15.39,0,13.52,18.93,15.6,38.48,24.13,21.42,9.57,30.78,22.88,30.78,41.18C1102.82,900.77,1088.88,917,1063.5,920.32Z"/><path class="cls-2" d="M1174.39,1069l-19.54-12.61-4.27,6.61c-30.79,1.2-70.62,29.81-99.65,74.78s-38.7,93.06-27.11,121.6l-4.27,6.61,19.54,12.61c30.82,19.9,86.1-10.9,123.46-68.78S1205.21,1088.93,1174.39,1069Z"/><path class="cls-3" d="M1060.93,1287.49a42.34,42.34,0,0,1-23.35-6.52L1018,1268.35a2.78,2.78,0,0,1-.83-3.84l3.5-5.42c-5.48-14.55-5.93-33.5-1.29-54.92,4.84-22.35,14.93-45.82,29.17-67.88s31.47-40.91,49.85-54.53c17.61-13.05,35.06-20.44,50.58-21.44l3.5-5.42a2.78,2.78,0,0,1,3.84-.83l19.54,12.61h0c15.81,10.21,23.24,31.07,20.91,58.74-2.27,27-13.61,57.56-31.92,85.93s-41.45,51.27-65.16,64.47C1085.82,1283.58,1072.63,1287.49,1060.93,1287.49Zm-37.54-22.29,17.21,11.11c29.49,19,83.15-11.45,119.62-67.95s42.15-118,12.66-137l-17.21-11.11-2.76,4.28a2.78,2.78,0,0,1-2.22,1.27c-30.66,1.19-69.82,30.74-97.43,73.51s-38.41,90.62-26.87,119.05a2.78,2.78,0,0,1-.24,2.55Z"/><ellipse class="cls-2" cx="1087.2" cy="1161.22" rx="124.74" ry="66.43" transform="translate(-478.04 1444.9) rotate(-57.16)"/><path class="cls-3" d="M1041.39,1274.88a42.33,42.33,0,0,1-23.35-6.52c-15.81-10.21-23.24-31.07-20.91-58.74,2.27-27,13.61-57.56,31.92-85.93s41.45-51.27,65.16-64.47c24.26-13.51,46.33-15.33,62.14-5.13s23.24,31.07,20.91,58.74c-2.27,27-13.61,57.56-31.92,85.93h0c-18.31,28.37-41.45,51.27-65.16,64.47C1066.28,1271,1053.09,1274.88,1041.39,1274.88ZM1133,1053.12c-10.73,0-23,3.67-36.05,10.95-22.93,12.77-45.37,35-63.2,62.63-36.47,56.5-42.15,118-12.66,137,14,9,34,7.15,56.42-5.31,22.93-12.77,45.37-35,63.2-62.63h0c36.47-56.5,42.15-118,12.66-137A36.92,36.92,0,0,0,1133,1053.12Zm10,144.13h0Z"/><path class="cls-2" d="M1129.84,1188.74c-26.49,41-64.76,64.26-89,55.24a27.4,27.4,0,0,1-5.37-2.68c-23.55-15.2-19.5-63.38,9-107.61s70.78-67.74,94.33-52.55a27.4,27.4,0,0,1,4.66,3.79C1161.73,1103.27,1156.33,1147.7,1129.84,1188.74Z"/><path class="cls-3" d="M1052.05,1248.67a34.57,34.57,0,0,1-12.14-2.08,30.26,30.26,0,0,1-5.91-3c-12.29-7.93-18.07-24.09-16.27-45.48,1.75-20.77,10.44-44.2,24.49-66s31.81-39.33,50-49.48c18.76-10.45,35.85-11.83,48.15-3.9a30.24,30.24,0,0,1,5.13,4.17c19.3,19.46,13.57,65.58-13.34,107.26h0C1109.22,1225.82,1077,1248.67,1052.05,1248.67Zm70.12-169.39c-8.08,0-17.34,2.78-27.23,8.28-17.43,9.71-34.5,26.63-48.06,47.64-27.67,42.87-32.1,89.42-9.87,103.77a24.8,24.8,0,0,0,4.83,2.41c11,4.08,25.58,1,41.2-8.6,16.15-10,31.94-26.13,44.47-45.54s20.76-40.45,23.18-59.27c2.34-18.2-.89-32.79-9.12-41.08a24.7,24.7,0,0,0-4.19-3.41A27.57,27.57,0,0,0,1122.17,1079.28Zm7.67,109.47h0Z"/><path class="cls-2" d="M1040.88,1244a27.4,27.4,0,0,1-5.37-2.68c-23.55-15.2-19.5-63.38,9-107.61s70.78-67.74,94.33-52.55a27.4,27.4,0,0,1,4.66,3.79c-24.19-9-62.48,14.19-89,55.23S1022.69,1225.65,1040.88,1244Z"/><path class="cls-3" d="M1040.88,1246.76a2.78,2.78,0,0,1-1-.17,30.3,30.3,0,0,1-5.92-3c-12.29-7.93-18.07-24.09-16.27-45.48,1.75-20.77,10.44-44.2,24.49-66s31.81-39.33,50-49.48c18.76-10.45,35.85-11.83,48.15-3.9a30.24,30.24,0,0,1,5.13,4.17,2.78,2.78,0,0,1-2.95,4.55c-10.94-4.08-25.57-1-41.19,8.6-16.15,10-31.94,26.13-44.47,45.53s-20.76,40.46-23.18,59.28c-2.34,18.2.9,32.79,9.13,41.08A2.78,2.78,0,0,1,1040.88,1246.76Zm81.29-167.48c-8.08,0-17.34,2.78-27.23,8.28-17.43,9.71-34.5,26.63-48.06,47.64-24.93,38.62-31,80.22-15.7,98.58-9-22.94-1.25-60.55,21.06-95.12s53.35-57.09,78-58.35A30.6,30.6,0,0,0,1122.17,1079.28Z"/><path class="cls-4" d="M1059.81,1221.3a1.41,1.41,0,0,0-1.2.77l-4.43,7c-1.2,1.87-2.2,2.32-3.11,1.73l-4.89-3.15c-0.91-.59-0.91-1.69.3-3.55l4.78-7a1.41,1.41,0,0,0,.21-1.41c-8-8.27-6.57-22.53,3.06-37.45l4.32-6.69c1.1-1.71,2.2-2.32,3.11-1.73l8.61,5.56c0.91,0.59.91,1.69,0.1,2.93l-1.41,2.18c-5.12,7.93-6.8,16.53-1.17,20.17,5.3,3.42,11.45-1.2,15.46-7.42,7.13-11-2.53-19.7-4.26-34.47-1.32-9.22,0-19.14,8.57-32.35,10.54-16.33,23.35-24.36,34.58-20.85a1.41,1.41,0,0,0,1.2-.77l5.25-8.5c1.2-1.87,2.2-2.32,3.11-1.73l4.72,3c0.91,0.59.81,1.84-.3,3.55l-5.4,8.19a1.41,1.41,0,0,0-.21,1.41c8.63,8.44,6.94,23.42-3.4,39.43l-3.31,5.13c-1.1,1.71-2.2,2.32-3.11,1.73l-8.69-5.61a1.63,1.63,0,0,1-.4-2.46l1-1.55c5.32-8.24,7.65-17.31,1.86-21-4.64-3-10.36-.3-14.88,6.7-6.52,10.11,0,16.52,3.68,27.92,3.91,12.66,1.21,25-7.62,38.7C1084.89,1216.79,1071.52,1225.33,1059.81,1221.3Z"/><path class="cls-2" d="M776.31,1054l16.46-10.62,3.59,5.57c25.92,1,59.47,25.1,83.92,63s32.59,78.36,22.83,102.4l3.59,5.57-16.46,10.62c-26,16.75-72.5-9.18-104-57.92S750.35,1070.79,776.31,1054Z"/><path class="cls-3" d="M871.85,1238.43c-9.93,0-21.1-3.31-32.88-9.87-20-11.16-39.57-30.49-55-54.44s-25-49.72-26.95-72.56c-2-23.47,4.35-41.18,17.81-49.87l16.46-10.62a2.77,2.77,0,0,1,3.84.83l2.82,4.38c27.55,1.89,60.62,26.88,84.68,64.16s33.23,77.71,23.6,103.59l2.82,4.38a2.78,2.78,0,0,1-.83,3.84l-16.46,10.62A36.08,36.08,0,0,1,871.85,1238.43Zm-94-182.07c-24.63,15.9-19.79,67.37,10.79,114.75,15,23.2,33.82,41.88,53.06,52.6,18.7,10.42,35.41,12,47.06,4.49l14.12-9.12-2.09-3.23a2.78,2.78,0,0,1-.24-2.55c9.67-23.82.59-63.94-22.59-99.85s-56-60.7-81.69-61.7a2.77,2.77,0,0,1-2.23-1.27l-2.09-3.23-14.12,9.12h0Zm-1.51-2.33h0Z"/><ellipse class="cls-2" cx="849.73" cy="1131.66" rx="55.94" ry="105.04" transform="translate(-477.91 641.7) rotate(-32.84)"/><path class="cls-3" d="M888.31,1227.81c-9.93,0-21.1-3.31-32.88-9.87-20-11.16-39.57-30.49-55-54.44h0c-15.46-23.95-25-49.72-26.95-72.56-2-23.47,4.35-41.18,17.81-49.87s32.2-7.16,52.78,4.3c20,11.16,39.57,30.49,55,54.44s25,49.72,26.95,72.56c2,23.47-4.35,41.18-17.81,49.86A36.08,36.08,0,0,1,888.31,1227.81Zm-77-186.78a30.88,30.88,0,0,0-17,4.71c-24.63,15.9-19.79,67.37,10.79,114.75h0c15,23.2,33.82,41.88,53.06,52.6,18.7,10.42,35.41,12,47.06,4.49s17.08-23.41,15.29-44.73c-1.84-22-11.11-46.82-26.08-70C870,1065,836.39,1041,811.31,1041Z"/><path class="cls-2" d="M813.82,1154.84c22.31,34.56,54.54,54.11,74.91,46.52a23.07,23.07,0,0,0,4.52-2.26c19.83-12.8,16.42-53.37-7.62-90.61s-59.61-57-79.44-44.25a23.07,23.07,0,0,0-3.92,3.19C787,1082.86,791.51,1120.28,813.82,1154.84Z"/><path class="cls-3" d="M879.36,1205.74c-21.15,0-48.45-19.31-67.87-49.39h0c-22.77-35.28-27.57-74.34-11.17-90.88a26,26,0,0,1,4.39-3.57c10.5-6.77,25.05-5.61,41,3.27,15.4,8.58,30.41,23.42,42.28,41.81s19.22,38.19,20.69,55.75c1.53,18.19-3.41,31.93-13.9,38.71a26,26,0,0,1-5.07,2.53A29.48,29.48,0,0,1,879.36,1205.74Zm-63.2-52.4c21,32.6,52.5,52.55,71.61,45.42a20.45,20.45,0,0,0,4-2c8.69-5.61,12.73-17.53,11.38-33.57-1.4-16.67-8.44-35.56-19.83-53.2s-25.7-31.83-40.31-40c-14.06-7.83-26.59-9.06-35.28-3.45a20.43,20.43,0,0,0-3.45,2.81c-14.37,14.49-9.15,51.37,11.89,84h0Z"/><path class="cls-2" d="M888.74,1201.36a23.07,23.07,0,0,0,4.52-2.26c19.83-12.8,16.42-53.37-7.62-90.61s-59.61-57-79.44-44.25a23.07,23.07,0,0,0-3.92,3.19c20.37-7.6,52.61,11.95,74.92,46.5S904.05,1185.92,888.74,1201.36Z"/><path class="cls-3" d="M888.74,1204.13a2.78,2.78,0,0,1-2-4.73c14.37-14.48,9.15-51.36-11.9-84s-52.5-52.54-71.61-45.41a2.78,2.78,0,0,1-2.95-4.55,26,26,0,0,1,4.39-3.58c10.5-6.77,25.05-5.61,41,3.27,15.4,8.58,30.41,23.42,42.28,41.81s19.22,38.19,20.69,55.75c1.53,18.19-3.41,31.93-13.9,38.71a26,26,0,0,1-5.07,2.53A2.79,2.79,0,0,1,888.74,1204.13Zm-72.25-140.77c20.35,2.62,45.08,21.23,63,49.06s24.75,58,18.75,77.66c4.09-6.44,5.79-15.66,4.85-26.9-1.4-16.67-8.44-35.56-19.83-53.2s-25.7-31.83-40.31-40C833.14,1064.53,824,1062.28,816.49,1063.36Z"/><path class="cls-4" d="M879.83,1177.94a1.18,1.18,0,0,0,.17,1.19l3.88,5.84c1,1.57,1,2.5.25,3l-4.11,2.66c-0.77.5-1.61,0.11-2.62-1.46l-3.75-6.11a1.18,1.18,0,0,0-1-.65c-9.13,3.3-19.57-2.75-27.69-15.32l-3.64-5.63c-0.93-1.44-1-2.49-.25-3l7.25-4.69c0.77-.5,1.61-0.11,2.28.93l1.18,1.83c4.31,6.68,10.34,10.95,15.08,7.88,4.46-2.88,3-9.2-.34-14.44-6-9.29-16-4.87-27.93-8.66-7.54-2.18-14.68-6.66-21.87-17.78-8.88-13.74-10.61-26.36-4-33.76a1.18,1.18,0,0,0-.17-1.19l-4.71-7c-1-1.57-1-2.5-.25-3l4-2.57c0.77-.5,1.69,0,2.62,1.46l4.41,7a1.18,1.18,0,0,0,1,.65c9.46-3.71,20.38,2.79,29.09,16.27l2.79,4.32c0.93,1.44,1,2.5.25,3l-7.32,4.73a1.37,1.37,0,0,1-2-.54l-0.85-1.31c-4.48-6.94-10.64-11.87-15.51-8.71-3.9,2.52-3.82,7.85,0,13.74,5.5,8.51,12.69,5.72,22.71,6.85,11.07,1.38,19.62,7.73,27.07,19.25C885,1157.12,887,1170.35,879.83,1177.94Z"/><polygon class="cls-2" points="587.26 1120.47 584.7 1186.09 554.7 1188.51 550.6 1117.49 587.26 1120.47"/><path class="cls-3" d="M554.7,1191.29a2.78,2.78,0,0,1-2.77-2.62l-4.1-71a2.78,2.78,0,0,1,3-2.93l36.66,3a2.78,2.78,0,0,1,2.55,2.88l-2.56,65.62a2.78,2.78,0,0,1-2.55,2.66l-30,2.42H554.7Zm-1.14-70.77,3.75,65,24.71-2,2.36-60.5Z"/><path class="cls-1" d="M490.86,730.94c2.36,17.62,42.09,398.69,42.09,398.69l71.23,0.48,13.33-187.73,3.69-51.92,18.22-256.63c7-86.62-135.34-87.05-147.77-7.7C486.44,659.44,488.5,713.3,490.86,730.94Z"/><path class="cls-3" d="M547,1105.27a2.78,2.78,0,0,1-2.76-2.53L502.39,643.06a2.78,2.78,0,0,1,5.53-.5l41.88,459.68a2.78,2.78,0,0,1-2.51,3H547Z"/><path class="cls-3" d="M510.4,703.12a2.78,2.78,0,0,1,0-5.55,5.68,5.68,0,0,0,4.42-2.16c9-10.06,7-48.18,5.52-62a2.78,2.78,0,0,1,5.52-.61c0.59,5.35,5.38,52.63-6.9,66.34A11.16,11.16,0,0,1,510.4,703.12Z"/><path class="cls-2" d="M565.62,913.35c-0.37,22.2,13,40.42,29.88,40.71,8.54,0.14,16.34-4.34,22-11.68l3.69-51.92c-5.41-10-14.26-16.62-24.36-16.78C580,873.38,566,891.15,565.62,913.35Z"/><path class="cls-3" d="M537.9,1118.14a2.78,2.78,0,0,1,0-5.55l58.66-.29h0a2.78,2.78,0,0,1,0,5.55l-58.66.29h0Z"/><path class="cls-1" d="M688.79,1297.14v14H544.86s-0.47-7.3-.91-19.57c-0.9-24.14-1.76-67.57.91-112.43l52.51-4.6s26.89,45.19,62,83.53c3.64,4,13.28,10.52,17.31,14.2C684.4,1279.31,688.79,1288.05,688.79,1297.14Z"/><path class="cls-3" d="M613.47,1260.84a2.78,2.78,0,0,1-2.28-1.19c-25.48-36.71-39.66-77.22-39.8-77.62a2.78,2.78,0,1,1,5.25-1.82c0.14,0.4,14.08,40.22,39.12,76.27A2.78,2.78,0,0,1,613.47,1260.84Z"/><ellipse class="cls-2" cx="561.25" cy="1238.23" rx="9.45" ry="21.37"/><path class="cls-3" d="M561.25,1262.71c-7.16,0-12.56-10.52-12.56-24.48s5.4-24.48,12.56-24.48,12.56,10.52,12.56,24.48S568.41,1262.71,561.25,1262.71Zm0-42.75c-2.15,0-6.35,6.45-6.35,18.27s4.19,18.27,6.35,18.27,6.35-6.45,6.35-18.27S563.4,1220,561.25,1220Z"/><path class="cls-2" d="M688.79,1297.14v14H544.86s-0.47-7.3-.91-19.57h65.93s-3.72-37.32,49.46-33.5c3.64,4,13.28,10.52,17.31,14.2C684.4,1279.31,688.79,1288.05,688.79,1297.14Z"/><path class="cls-3" d="M688.79,1313.9H544.86a2.78,2.78,0,0,1-2.77-2.6c0-.07-0.47-7.48-0.92-19.64a2.78,2.78,0,0,1,2.77-2.88h63.12a33.14,33.14,0,0,1,9.12-21.74c9-9.22,23.56-13.17,43.36-11.75a2.78,2.78,0,0,1,1.85.9c2,2.16,6.2,5.39,9.92,8.24,2.81,2.15,5.46,4.18,7.21,5.77,8.42,7.67,13,17.23,13,26.94v14A2.78,2.78,0,0,1,688.79,1313.9Zm-141.31-5.55H686v-11.21c0-8.12-4-16.24-11.24-22.84-1.57-1.43-4.13-3.39-6.84-5.47a114.45,114.45,0,0,1-9.85-8.08c-17.55-1.1-30.3,2.32-37.92,10.15a27.87,27.87,0,0,0-7.52,20.37,2.78,2.78,0,0,1-2.76,3.05h-63C547.08,1300.77,547.33,1305.6,547.48,1308.35Z"/><polygon class="cls-2" points="415.1 1128.23 407.65 1182.47 377.56 1182.04 378.89 1121.8 415.1 1128.23"/><path class="cls-3" d="M407.65,1185.24h0l-30.1-.43a2.78,2.78,0,0,1-2.74-2.84l1.33-60.25a2.78,2.78,0,0,1,3.26-2.67l36.21,6.43a2.78,2.78,0,0,1,2.27,3.11l-7.45,54.24A2.78,2.78,0,0,1,407.65,1185.24Zm-27.26-5.94,24.84,0.35L412,1130.5l-30.39-5.4Z"/><path class="cls-1" d="M361.31,716.45c0.68,17.77-1.14,415.75-1.14,415.75l70.87,7.22,36.36-200.5L476,887.58,518.4,633.83c15.2-85.57-126.5-99.46-146.38-21.64C363.67,644.85,360.62,698.67,361.31,716.45Z"/><path class="cls-3" d="M496.45,767.93a2.86,2.86,0,0,1-.46,0,2.78,2.78,0,0,1-2.28-3.2l21.95-131.32a2.78,2.78,0,1,1,5.48.92L499.18,765.61A2.78,2.78,0,0,1,496.45,767.93Z"/><path class="cls-3" d="M376.76,1109.29h0a2.78,2.78,0,0,1-2.73-2.82L381.1,630a2.78,2.78,0,1,1,5.55.08l-7.12,476.45A2.78,2.78,0,0,1,376.76,1109.29Z"/><path class="cls-3" d="M384.49,690.66q-0.55,0-1.1-.05a2.78,2.78,0,1,1,.53-5.53,5.69,5.69,0,0,0,4.6-1.73c9.92-9.16,11.56-47.3,11.36-61.22a2.78,2.78,0,0,1,2.74-2.82h0a2.78,2.78,0,0,1,2.78,2.74c0.08,5.38.38,52.9-13.14,65.39A11.26,11.26,0,0,1,384.49,690.66Z"/><path class="cls-2" d="M418.48,905.11c-2.47,22.07,9.13,41.47,25.9,43.35,8.49,0.95,16.68-2.78,23-9.55L476,887.58c-4.44-10.5-12.62-17.9-22.66-19C436.56,866.69,420.95,883,418.48,905.11Z"/><path class="cls-3" d="M424.87,1126.52h-0.25l-58.42-5.26a2.78,2.78,0,0,1,.5-5.53l58.42,5.26A2.78,2.78,0,0,1,424.87,1126.52Z"/><path class="cls-1" d="M510.39,1297.14v14H366.46s-0.47-7.3-.91-19.57c-0.9-24.14-1.76-67.57.91-112.43l52.51-4.6s26.89,45.19,62,83.53c3.64,4,13.28,10.52,17.31,14.2C506,1279.31,510.39,1288.05,510.39,1297.14Z"/><path class="cls-3" d="M435.07,1260.84a2.78,2.78,0,0,1-2.28-1.19c-25.48-36.71-39.66-77.22-39.8-77.62a2.78,2.78,0,1,1,5.25-1.82c0.14,0.4,14.08,40.22,39.12,76.27A2.78,2.78,0,0,1,435.07,1260.84Z"/><ellipse class="cls-2" cx="382.85" cy="1238.23" rx="9.45" ry="21.37"/><path class="cls-3" d="M382.85,1262.71c-7.16,0-12.56-10.52-12.56-24.48s5.4-24.48,12.56-24.48,12.56,10.52,12.56,24.48S390,1262.71,382.85,1262.71Zm0-42.75c-2.15,0-6.35,6.45-6.35,18.27s4.19,18.27,6.35,18.27,6.35-6.45,6.35-18.27S385,1220,382.85,1220Z"/><path class="cls-2" d="M510.39,1297.14v14H366.46s-0.47-7.3-.91-19.57h65.93s-3.72-37.32,49.46-33.5c3.64,4,13.28,10.52,17.31,14.2C506,1279.31,510.39,1288.05,510.39,1297.14Z"/><path class="cls-3" d="M510.4,1313.9H366.46a2.78,2.78,0,0,1-2.77-2.6c0-.07-0.47-7.48-0.92-19.64a2.78,2.78,0,0,1,2.77-2.88h63.12a33.14,33.14,0,0,1,9.12-21.74c9-9.22,23.56-13.17,43.36-11.75a2.78,2.78,0,0,1,1.85.9c2,2.16,6.2,5.39,9.92,8.24,2.81,2.15,5.46,4.18,7.21,5.77,8.42,7.67,13,17.23,13,26.94v14A2.78,2.78,0,0,1,510.4,1313.9Zm-141.31-5.55H507.62v-11.21c0-8.12-4-16.24-11.24-22.84-1.57-1.43-4.13-3.39-6.84-5.47a114.45,114.45,0,0,1-9.85-8.08c-17.55-1.1-30.3,2.32-37.92,10.15a27.87,27.87,0,0,0-7.52,20.37,2.78,2.78,0,0,1-2.76,3.05h-63C368.68,1300.77,368.93,1305.6,369.08,1308.35Z"/><path class="cls-2" d="M789.65,265.19s40.68-48.85,42.3-48.76c8.13,0.46,53.27,19.48,71.29,27.19a7.15,7.15,0,0,1,3.36,10.18h0a7.16,7.16,0,0,1-7.14,3.49l-33-4.46-6.81,11.52A20.62,20.62,0,0,1,838,274.1l-9.23-1.8L814,292.1Z"/><path class="cls-3" d="M814,294.88A2.78,2.78,0,0,1,812,294l-24.39-26.91a2.78,2.78,0,0,1-.08-3.64c0.1-.12,10.3-12.36,20.56-24.44,21.64-25.45,22.19-25.42,24-25.32,8.22,0.46,48.78,17.37,72.23,27.41a9.93,9.93,0,0,1-5.25,19l-31.14-4.21-5.87,9.94a23.44,23.44,0,0,1-24.62,11.06l-7.52-1.46-13.67,18.4a2.78,2.78,0,0,1-2.09,1.12H814Zm-20.72-29.77,20.5,22.62,12.7-17.09a2.77,2.77,0,0,1,2.76-1.07l9.23,1.8a17.87,17.87,0,0,0,18.77-8.44l6.81-11.52a2.79,2.79,0,0,1,2.76-1.34l33,4.46a4.38,4.38,0,0,0,2.32-8.36c-36.26-15.53-62.41-25.63-69.41-26.85C828.31,223.56,807.25,248.42,793.33,265.11Z"/><path class="cls-4" d="M831.16,286.67s-34,51.86-58.18,84.48c-10.21,13.75-18.69,24.08-22.15,25.66s-17.35.74-35.17-1.21c-42.22-4.65-106.5-15.6-106.5-15.6s-49-10.33-55-58.33,31.41-51.6,52.67-46.7l115.33,25.51,71.34-48.14Z"/><path class="cls-3" d="M814.16,297.78a2.76,2.76,0,0,1-1.84-.7l-30-26.67a2.78,2.78,0,0,1,3.69-4.15l30,26.67A2.78,2.78,0,0,1,814.16,297.78Z"/><path class="cls-2" d="M773,371.15c-10.21,13.75-18.69,24.08-22.15,25.66s-17.35.74-35.17-1.21v-0.09A33.83,33.83,0,0,1,773,371.15Z"/><path class="cls-4" d="M362,317.06l-4.15,335.38s9.41,1.3,25.64,2.8V616.62a5.62,5.62,0,0,1,6.7-5.54,5.79,5.79,0,0,1,4.58,5.76v39.38c53.33,4.34,156,8.5,251.4-11.41,0,0-8.62-290.91-39.35-369.84,0,0-57.5-21.8-119.41-20.55-41.93.84-84.49,20.47-107.59,33A34.18,34.18,0,0,0,362,317.06Z"/><path class="cls-3" d="M627.43,380.45a2.78,2.78,0,0,1-2.75-2.43c-5.38-43.21-11.47-75.34-18.1-95.49a2.78,2.78,0,1,1,5.28-1.74c6.75,20.49,12.92,53,18.34,96.54a2.78,2.78,0,0,1-2.41,3.1Z"/><path class="cls-3" d="M476.63,645.84c-22.16,0-45.12-.7-67.78-2.45a2.67,2.67,0,1,1,.41-5.32c107.9,8.37,222.73-7.46,223.88-7.62a2.67,2.67,0,0,1,.74,5.28A1282.71,1282.71,0,0,1,476.63,645.84Z"/><path class="cls-2" d="M450.7,283.42c8.48,19.72,24.41,33.44,34.38,36.57,2.56-14.07,9.62-31.75,9.62-31.75,7.85,10.8,12,25.08,13,31.6,25.4-7,28.3-37.13,28.3-37.13a41.41,41.41,0,0,0-42.21-36.55C453.88,247.5,450.7,283.42,450.7,283.42Z"/><path class="cls-3" d="M485.07,322.77a2.77,2.77,0,0,1-.83-0.13c-11-3.47-27.45-18-36.1-38.12a2.78,2.78,0,0,1-.21-1.34c0-.38,3.89-38.38,45.78-39.81a44,44,0,0,1,45.06,39,2.78,2.78,0,0,1,0,.61c-0.13,1.31-3.39,32.14-30.33,39.55a2.78,2.78,0,0,1-3.48-2.25,82.18,82.18,0,0,0-9.6-25.93c-2.25,6.21-5.9,17-7.56,26.15A2.78,2.78,0,0,1,485.07,322.77Zm9.62-37.31a2.78,2.78,0,0,1,2.25,1.15c7.24,10,11.27,22.34,12.9,29.62,19.42-7.35,23-30.65,23.37-33.51a38.5,38.5,0,0,0-39.32-33.8c-34.42,1.17-39.7,29.21-40.35,34.08,7.64,17.3,20.79,29,29.47,33.17a215.48,215.48,0,0,1,9.11-29,2.78,2.78,0,0,1,2.23-1.73Z"/><path class="cls-2" d="M474,200.52l0.65,24.54,1.11,42c14.12,9.87,27.86,10.91,41.1,1l-1.94-19.5L511.95,219Z"/><path class="cls-3" d="M497.65,277.76q-11.41,0-23.52-8.44a2.78,2.78,0,0,1-1.19-2.2l-1.76-66.52a2.78,2.78,0,0,1,4-2.57l38,18.45a2.78,2.78,0,0,1,1.55,2.22l4.88,49a2.78,2.78,0,0,1-1.1,2.5C511.8,275.25,504.84,277.76,497.65,277.76Zm-19.19-12.21c12.73,8.46,24.35,8.83,35.44,1.14l-4.57-45.9L476.86,205Z"/><path class="cls-3" d="M487.08,206.89c0.19,11.09-.82,48.84,28.93,52.92L511.95,219Z"/><rect class="cls-2" x="280.76" y="397.63" width="288.21" height="205.03" rx="9.45" ry="9.45"/><path class="cls-3" d="M559.53,605.44H290.21A12.24,12.24,0,0,1,278,593.22V407.08a12.24,12.24,0,0,1,12.23-12.23H559.53a12.24,12.24,0,0,1,12.23,12.23V593.22A12.24,12.24,0,0,1,559.53,605.44Zm-269.32-205a6.68,6.68,0,0,0-6.67,6.67V593.22a6.68,6.68,0,0,0,6.67,6.67H559.53a6.68,6.68,0,0,0,6.67-6.67V407.08a6.68,6.68,0,0,0-6.67-6.67H290.21Z"/><rect class="cls-2" x="451.2" y="397.63" width="117.77" height="205.03" rx="9.45" ry="9.45"/><path class="cls-3" d="M559.53,605.44H460.65a12.24,12.24,0,0,1-12.23-12.22V407.08a12.24,12.24,0,0,1,12.23-12.23h98.88a12.24,12.24,0,0,1,12.23,12.23V593.22A12.24,12.24,0,0,1,559.53,605.44Zm-98.88-205a6.68,6.68,0,0,0-6.67,6.67V593.22a6.68,6.68,0,0,0,6.67,6.67h98.88a6.68,6.68,0,0,0,6.67-6.67V407.08a6.68,6.68,0,0,0-6.67-6.67H460.65Z"/><path class="cls-3" d="M557.85,445.44H462.32a2.78,2.78,0,0,1,0-5.55h95.52A2.78,2.78,0,1,1,557.85,445.44Z"/><path class="cls-3" d="M438,445.44H294.37a2.78,2.78,0,1,1,0-5.55H438A2.78,2.78,0,0,1,438,445.44Z"/><path class="cls-2" d="M423.95,539.13s47.06,31.55,52.95,37.44-0.53,35.3,0,37.44-55.09,5.88-61.5,0-12.73-39-12.73-39Z"/><path class="cls-3" d="M439.51,619.94c-14.44,0-23.17-1.31-26-3.89-6.75-6.19-12.5-34.88-13.59-40.57a2.78,2.78,0,0,1,.34-1.94l21.29-35.83a2.78,2.78,0,0,1,3.93-.89c1.93,1.29,47.36,31.77,53.36,37.78,4.92,4.92,3.41,19.22,1.44,33.46-0.31,2.25-.66,4.8-0.66,5.51a3,3,0,0,1-1.52,3.08c-3.4,2-24.08,3-31.05,3.19Q443.06,619.94,439.51,619.94Zm-33.93-44.47C408,588,413.2,608.23,417.27,612c4.26,3.91,47.63,2.38,56.91.23,0.11-1.08.31-2.6,0.63-4.88,1-6.95,3.51-25.4.13-28.77-4.4-4.4-35.62-25.72-50.1-35.46Zm74,37.86h0Z"/><path class="cls-4" d="M255.64,460.65c-2.31,14-1.93,26.11,2.06,34.87,5.24,11.47,14.66,21.87,26.27,31.14,43.82,35,118.92,53.91,118.92,53.91L429.48,540l-79.89-70.4s87.8-165.83,57-182C361.22,263.91,264.36,407.69,255.64,460.65Z"/><path class="cls-2" d="M255.64,460.65c-2.36,14-1.93,26.11,2.06,34.87,5.24,11.47,14.66,21.87,26.27,31.14A39.19,39.19,0,0,0,255.64,460.65Z"/><path class="cls-3" d="M304.58,486a2.78,2.78,0,0,1-.81-5.43l45-13.67a2.78,2.78,0,1,1,1.61,5.31l-45,13.67A2.77,2.77,0,0,1,304.58,486Z"/><path class="cls-3" d="M402.89,583.35a2.77,2.77,0,0,1-.68-0.08c-0.71-.18-71.39-18.25-115.57-51a2.78,2.78,0,1,1,3.31-4.46c39.26,29.14,100.2,46.51,111.71,49.61l24.17-36.9-78.08-68.81a2.78,2.78,0,0,1-.62-3.38c0.64-1.2,63.71-120.86,63.12-165a2.78,2.78,0,1,1,5.55-.07c0.58,43-54.22,149.48-62.74,165.77l78.25,69a2.78,2.78,0,0,1,.49,3.6L405.22,582.1A2.78,2.78,0,0,1,402.89,583.35Z"/><path class="cls-3" d="M387.27,558.93a2.78,2.78,0,0,1-2.28-4.36l23-33.06a2.78,2.78,0,1,1,4.56,3.17l-23,33.06A2.77,2.77,0,0,1,387.27,558.93Z"/><circle class="cls-2" cx="399.05" cy="563.63" r="5.4" transform="matrix(0.93, -0.36, 0.36, 0.93, -175.23, 180.06)"/><path class="cls-3" d="M399,571.8a8.18,8.18,0,1,1,2.93-.54A8.15,8.15,0,0,1,399,571.8Zm0-10.8a2.61,2.61,0,0,0-.94.17h0A2.6,2.6,0,1,0,399.05,561Zm-1.93-2.42h0Z"/><path class="cls-2" d="M554,205.67c-3.91,21.85-12.31,47.69-38.42,41.57-31-7.28-49.63-31-47.63-60.94s17.07-45.7,52.59-39.54a55.07,55.07,0,0,1,8.89,2.3c20.17,7.13,29.22,25,26.4,44.91C555.37,197.56,554.8,201.54,554,205.67Z"/><path class="cls-3" d="M523,250.92a35.25,35.25,0,0,1-8-1c-12.32-2.89-23.22-8.49-31.51-16.19a2.78,2.78,0,0,1,3.78-4.07c7.7,7.15,17.46,12.15,29,14.86,7.22,1.7,13.16.86,18.16-2.56,13.13-9,16.76-34.62,18.71-48.4,3.22-22.74-9.74-40-33-44.08a2.78,2.78,0,1,1,1-5.47c26.08,4.53,41.18,24.76,37.56,50.33-2.86,20.24-7.09,42.64-21.07,52.21A25.15,25.15,0,0,1,523,250.92Z"/><path class="cls-3" d="M458.23,191.19a92.07,92.07,0,0,0,9.22,13.06l15.76,2.2,4.24-11s10.09,0.32,12.68-6.3a3.94,3.94,0,0,0,.17-0.47c0.7-2.18,3.52-11.93,3.2-27.45,0,0,23.34,12.52,36.39,14.91,4.69,0.86,10.35-.53,15.69-2.68,10.68-4.3,21-20.38,20-31.86l0-.22c-1.55-16.84-11.1-6-11.1-6s-1.45-13.57-9.76-15.18-14.6,10.35-14.6,10.35a132.41,132.41,0,0,0-48.94-5.81c-32.79,2.47-26.43,25.41-26.43,25.41S440.35,156,458.23,191.19Z"/><path class="cls-2" d="M479.9,204.48c2.31-12.38-5.57-24.65-17.94-27a21,21,0,0,0-7.94,0c-15.78,3-14.48,39.31,23.57,39.46Z"/><path class="cls-3" d="M477.58,219.63h0c-23-.09-34.56-13.17-35.75-26.08-0.87-9.49,4-17.44,11.67-18.88a23.82,23.82,0,0,1,9,0c13.73,2.65,22.76,16.24,20.14,30.28a2.78,2.78,0,0,1-5.46-1c2.07-11-5-21.73-15.74-23.8a18.29,18.29,0,0,0-6.9,0c-4.76.9-7.78,6.33-7.18,12.92,0.89,9.65,9.34,21,30.24,21A2.78,2.78,0,0,1,477.58,219.63Z"/><path class="cls-1" d="M1294.87,687.89a25.79,25.79,0,0,0-25.8,25.79,25.78,25.78,0,0,0-25.79-25.79,25.79,25.79,0,0,0,25.79-25.8A25.8,25.8,0,0,0,1294.87,687.89Z"/><path class="cls-4" d="M731.77,946a16.11,16.11,0,0,0-16.12,16.11A16.11,16.11,0,0,0,699.54,946a16.11,16.11,0,0,0,16.11-16.12A16.12,16.12,0,0,0,731.77,946Z"/><path class="cls-4" d="M715.21,158.26a22.88,22.88,0,0,0-22.88,22.87,22.87,22.87,0,0,0-22.87-22.87,22.88,22.88,0,0,0,22.87-22.88A22.89,22.89,0,0,0,715.21,158.26Z"/><circle class="cls-1" cx="306.97" cy="252.33" r="12.6"/></svg>